<svg width="176" height="40" viewBox="0 0 176 40" fill="none" xmlns="http://www.w3.org/2000/svg">
<g clip-path="url(#clip0_66_2108)">
<path d="M51.9586 18.9429H58.6218V36.3427H62.5832V18.9429H69.2464V15.343C63.1535 15.343 58.0218 15.343 51.9597 15.343V18.9429H51.9586Z" fill="url(#paint0_linear_66_2108)"/>
<path d="M90.4166 22.3029C90.4166 18.6733 87.8051 15.3727 82.8538 15.343C79.5222 15.343 76.1906 15.3133 72.8601 15.3133V36.3437H76.8215V29.3233H80.6331L86.7557 36.3437H91.468V36.0741L85.1053 28.904C89.0965 28.0929 90.4166 25.182 90.4166 22.3029ZM76.8215 25.7521V19.0321H82.8538C85.3453 19.0321 86.4552 20.7126 86.4552 22.3921C86.4552 24.0716 85.3751 25.7521 82.8538 25.7521H76.8215Z" fill="url(#paint1_linear_66_2108)"/>
<path d="M98.2327 15.343H94.301V36.3427H98.2327V15.343Z" fill="url(#paint2_linear_66_2108)"/>
<path d="M116.941 28.3626L106.647 15.343H103.436V36.3427H107.398V22.1829L118.442 36.3724V36.3427H120.904V15.3122H116.941V28.3626Z" fill="url(#paint3_linear_66_2108)"/>
<path d="M129.68 15.343H125.748V36.3427H129.68V15.343Z" fill="url(#paint4_linear_66_2108)"/>
<path d="M134.313 18.9429H140.976V36.3427H144.938V18.9429H151.6V15.343C145.507 15.343 140.375 15.343 134.313 15.343V18.9429Z" fill="url(#paint5_linear_66_2108)"/>
<path d="M170.88 15.343L165.298 24.0131L159.956 15.343H155.244V15.5224L163.317 27.6725V36.3427H167.279V27.6725L175.652 15.5224V15.343H170.88Z" fill="url(#paint6_linear_66_2108)"/>
<path d="M24.9131 0V23.7168L21.1938 26.1479L0 40L11.8626 20.9536L12.4565 20L24.9131 0Z" fill="url(#paint7_linear_66_2108)"/>
<path d="M46.0689 40H0L21.1938 26.1479L24.9131 28.219L46.0689 40Z" fill="url(#paint8_linear_66_2108)"/>
<path d="M49.8272 40H46.0689L24.9131 28.219L28.6314 26.1479L24.9131 23.7168V0L35.4115 16.8553L37.3696 20L49.8272 40Z" fill="url(#paint9_linear_66_2108)"/>
</g>
<defs>
<linearGradient id="paint0_linear_66_2108" x1="60.6022" y1="11.6854" x2="60.6022" y2="64.0641" gradientUnits="userSpaceOnUse">
<stop stop-color="#E700E6"/>
<stop offset="1" stop-color="#4B4BDF"/>
</linearGradient>
<linearGradient id="paint1_linear_66_2108" x1="82.1634" y1="11.6854" x2="82.1634" y2="64.0643" gradientUnits="userSpaceOnUse">
<stop stop-color="#E700E6"/>
<stop offset="1" stop-color="#4B4BDF"/>
</linearGradient>
<linearGradient id="paint2_linear_66_2108" x1="96.2665" y1="11.6854" x2="96.2665" y2="64.0641" gradientUnits="userSpaceOnUse">
<stop stop-color="#E700E6"/>
<stop offset="1" stop-color="#4B4BDF"/>
</linearGradient>
<linearGradient id="paint3_linear_66_2108" x1="112.17" y1="11.6854" x2="112.17" y2="64.0642" gradientUnits="userSpaceOnUse">
<stop stop-color="#E700E6"/>
<stop offset="1" stop-color="#4B4BDF"/>
</linearGradient>
<linearGradient id="paint4_linear_66_2108" x1="127.714" y1="11.6854" x2="127.714" y2="64.0641" gradientUnits="userSpaceOnUse">
<stop stop-color="#E700E6"/>
<stop offset="1" stop-color="#4B4BDF"/>
</linearGradient>
<linearGradient id="paint5_linear_66_2108" x1="142.957" y1="11.6854" x2="142.957" y2="64.0641" gradientUnits="userSpaceOnUse">
<stop stop-color="#E700E6"/>
<stop offset="1" stop-color="#4B4BDF"/>
</linearGradient>
<linearGradient id="paint6_linear_66_2108" x1="165.448" y1="11.6854" x2="165.448" y2="64.0641" gradientUnits="userSpaceOnUse">
<stop stop-color="#E700E6"/>
<stop offset="1" stop-color="#4B4BDF"/>
</linearGradient>
<linearGradient id="paint7_linear_66_2108" x1="0" y1="19.9999" x2="24.9127" y2="19.9999" gradientUnits="userSpaceOnUse">
<stop stop-color="#E700E6"/>
<stop offset="1" stop-color="#4B4BDF"/>
</linearGradient>
<linearGradient id="paint8_linear_66_2108" x1="0" y1="33.074" x2="46.0687" y2="33.074" gradientUnits="userSpaceOnUse">
<stop stop-color="#E700E6"/>
<stop offset="1" stop-color="#4B4BDF"/>
</linearGradient>
<linearGradient id="paint9_linear_66_2108" x1="24.9127" y1="19.9999" x2="49.827" y2="19.9999" gradientUnits="userSpaceOnUse">
<stop stop-color="#E700E6"/>
<stop offset="1" stop-color="#4B4BDF"/>
</linearGradient>
<clipPath id="clip0_66_2108">
<rect width="175.652" height="40" fill="white"/>
</clipPath>
</defs>
</svg>
